<svg xmlns="http://www.w3.org/2000/svg" xmlns:xlink="http://www.w3.org/1999/xlink" width="146" height="23"><path fill="rgb(58,70,79)" stroke="none" transform="translate(23.3556 1.56927)" d="M0 8.41281L0 8.36681C0 3.76606 3.43952 0 8.33311 0C11.3117 0 13.1118 1.03945 14.66 2.51813L12.8361 4.623C11.5414 3.41958 10.1577 2.61087 8.31088 2.61087C5.21746 2.61087 2.97706 5.15274 2.97706 8.32007L2.97706 8.36681C2.97706 11.5312 5.21746 14.1198 8.31088 14.1198C10.2963 14.1198 11.5659 13.3118 12.951 12.0179L14.7742 13.8653C13.0896 15.6229 11.2413 16.7306 8.21824 16.7306C3.50845 16.7306 0 13.0573 0 8.41281"></path><path fill="rgb(58,70,79)" stroke="none" transform="translate(40.6173 1.84682)" d="M0 0L3.02376 0L7.94181 7.6501L12.8599 0L15.8829 0L15.8829 16.1772L13.0444 16.1772L13.0444 4.57477L7.94181 12.2011L7.84842 12.2011L2.79475 4.62077L2.79475 16.1772L0 16.1772L0 0Z"></path><path fill="rgb(58,70,79)" stroke="none" transform="translate(59.5492 1.84682)" d="M0 0L11.9831 0L11.9831 2.54039L2.83996 2.54039L2.83996 6.7479L10.9433 6.7479L10.9433 9.28977L2.83996 9.28977L2.83996 13.6345L12.0965 13.6345L12.0965 16.1772L0 16.1772L0 0Z"></path><path fill="rgb(58,70,79)" stroke="none" transform="translate(77.5281 1.56927)" d="M0 8.41281L0 8.36681C0 3.83729 3.46546 0 8.33608 0C11.1531 0 12.8828 0.78571 14.5444 2.19465L12.7435 4.34403C11.4992 3.28084 10.2741 2.61087 8.21899 2.61087C5.24118 2.61087 2.98003 5.22248 2.98003 8.32007L2.98003 8.36681C2.98003 11.6936 5.17226 14.1443 8.47245 14.1443C9.99619 14.1443 11.3828 13.6575 12.3759 12.9186L12.3759 9.89148L8.24493 9.89148L8.24493 7.41787L15.1217 7.41787L15.1217 14.2118C13.5283 15.5762 11.2457 16.7306 8.38129 16.7306C3.32613 16.7306 0 13.1271 0 8.41281"></path><path fill="rgb(58,70,79)" stroke="none" transform="translate(95.5566 5.58475)" d="M0 0.235418L2.79401 0.235418L2.79401 2.98472C3.55662 1.161 4.96326 -0.0872003 7.10879 0.00476445L7.10879 2.96321L6.94797 2.96321C4.50154 2.96321 2.79401 4.55628 2.79401 7.79062L2.79401 12.4341L0 12.4341L0 0.235418Z"></path><path fill="rgb(58,70,79)" stroke="none" transform="translate(103.807 5.56674)" d="M10.2052 6.42516L10.2052 6.37916C10.2052 4.22977 8.65921 2.44987 6.46476 2.44987C4.22733 2.44987 2.79549 4.20677 2.79549 6.33242L2.79549 6.37916C2.79549 8.50481 4.34146 10.3062 6.51293 10.3062C8.77334 10.3062 10.2052 8.52781 10.2052 6.42516M0 6.42516L0 6.37916C0 2.8891 2.77252 0 6.51294 0C10.2511 0 12.9977 2.84235 12.9977 6.33242L12.9977 6.37916C12.9977 9.84474 10.2267 12.7331 6.46476 12.7331C2.7488 12.7331 0 9.89297 0 6.42516"></path><path fill="rgb(58,70,79)" stroke="none" transform="translate(119.041 5.82004)" d="M0 7.76732L0 0L2.79401 0L2.79401 6.93413C2.79401 8.82977 3.74041 9.91523 5.402 9.91523C7.01911 9.91523 8.1508 8.78303 8.1508 6.88813L8.1508 0L10.9433 0L10.9433 12.2034L8.1508 12.2034L8.1508 10.3085C7.36521 11.4636 6.23427 12.4578 4.34072 12.4578C1.59192 12.4578 0 10.6089 0 7.76732"></path><path fill="rgb(58,70,79)" stroke="none" transform="translate(132.836 5.56637)" d="M2.79401 0.253742L0 0.253742L0 16.8983L2.79401 16.8983L2.79401 10.5622C3.64629 11.6944 4.91731 12.7116 6.92648 12.7116C9.83462 12.7116 12.6049 10.4234 12.6049 6.37916L12.6049 6.33316C12.6049 2.28813 9.81239 0 6.92648 0C4.964 0 3.69299 1.01794 2.79401 2.28813L2.79401 0.253742ZM9.76644 6.33316L9.76644 6.37916C9.76644 8.78155 8.19601 10.2862 6.28096 10.2862C4.38741 10.2862 2.72583 8.73555 2.72583 6.37916L2.72583 6.33316C2.72583 3.99829 4.38741 2.42687 6.28096 2.42687C8.17304 2.42687 9.76644 3.97603 9.76644 6.33316Z" fill-rule="evenodd"></path><defs><clipPath id="clip_0"><rect x="0.00012207031" y="0.7421608" width="18.845116" height="18.888344" clip-rule="evenodd"></rect></clipPath></defs><g clip-path="url(#clip_0)"><path class="icon" fill="rgb(37,169,224)" stroke="none" transform="translate(0.00012207 0.741566)" d="M5.40571 0L7.23997 0C6.13941 1.0261 5.25822 2.3601 4.64235 3.91222L1.54819 3.91222L5.40571 0ZM9.08164 3.91222L5.3353 3.91222C6.01342 2.30148 6.99985 0.95858 8.2301 0L9.08164 0L9.08164 3.91222ZM10.6143 0L9.76347 0L9.76347 3.91222L13.5024 3.91222C12.8265 2.30148 11.8423 0.95858 10.6143 0ZM13.3683 0L17.2762 3.91222L14.1946 3.91222C13.5824 2.3601 12.7027 1.0261 11.6037 0L13.3683 0ZM4.39408 4.59555L0.874518 4.59555L0 5.48216L0 9.07164L3.64481 9.07164C3.67816 7.47055 3.93755 5.96071 4.39408 4.59555ZM9.08164 9.07164L4.28958 9.07164C4.32442 7.4609 4.59418 5.9481 5.06998 4.59555L9.08164 4.59555L9.08164 9.07164ZM9.76347 9.07164L14.5392 9.07164C14.5074 7.4609 14.2391 5.9481 13.7655 4.59555L9.76347 4.59555L9.76347 9.07164ZM14.4421 4.59555L17.9587 4.59555L18.8451 5.48216L18.8451 9.07164L15.1833 9.07164C15.1529 7.47055 14.8957 5.96071 14.4421 4.59555ZM0 9.75497L3.64481 9.75497C3.67668 11.3672 3.93681 12.8889 4.39927 14.2652L0.850061 14.2652L0 13.4149L0 9.75497ZM5.07443 14.2652L9.08164 14.2652L9.08164 9.75497L4.28958 9.75497C4.32145 11.3761 4.59122 12.9023 5.07443 14.2652ZM14.537 9.75497L9.76347 9.75497L9.76347 14.2652L13.7433 14.2652C14.2294 12.9023 14.5007 11.3761 14.537 9.75497ZM14.4192 14.2652L17.9713 14.2652L18.8451 13.3905L18.8451 9.75497L15.181 9.75497C15.1469 11.3672 14.8838 12.8889 14.4192 14.2652ZM5.4687 18.8889L1.53189 14.9485L4.65051 14.9485C5.27527 16.5095 6.16906 17.8547 7.28888 18.8889L5.4687 18.8889ZM8.28346 18.8889L9.08164 18.8889L9.08164 14.9485L5.34049 14.9485C6.02824 16.5696 7.03097 17.9222 8.28346 18.8889ZM9.76347 14.9485L9.76347 18.8889L10.5268 18.8889C11.7808 17.9222 12.7857 16.5696 13.4765 14.9485L9.76347 14.9485ZM13.3527 18.8889L11.5214 18.8889C12.6434 17.8539 13.5395 16.5095 14.1664 14.9485L17.2895 14.9485L13.3527 18.8889Z" fill-rule="evenodd"></path></g></svg>